<svg aria-hidden="true" style="position: absolute; width: 0; height: 0; overflow: hidden;" version="1.1" xmlns="http://www.w3.org/2000/svg" xmlns:xlink="http://www.w3.org/1999/xlink">
<defs>
<symbol id="icon-arrow-down" viewBox="0 0 32 32">
<path fill="none" stroke="#fafafa" style="stroke: var(--color1, #fafafa)" stroke-linejoin="miter" stroke-linecap="butt" stroke-miterlimit="4" stroke-width="3.2" d="M24 12l-8 8-8-8"></path>
</symbol>
<symbol id="icon-arrow-left" viewBox="0 0 32 32">
<path stroke-linejoin="round" stroke-linecap="round" stroke-miterlimit="4" stroke-width="2" d="M26.667 16h-21.334M13.333 24l-8-8 8-8"></path>
</symbol>
<symbol id="icon-arrow-right" viewBox="0 0 32 32">
<path fill="none" stroke="#fafafa" style="stroke: var(--color1, #fafafa)" stroke-linejoin="round" stroke-linecap="round" stroke-miterlimit="4" stroke-width="2" d="M5.333 16h21.334M18.667 8l8 8-8 8"></path>
</symbol>
<symbol id="icon-arrow-up" viewBox="0 0 32 32">
<path fill="none" stroke="#fafafa" style="stroke: var(--color1, #fafafa)" stroke-linejoin="miter" stroke-linecap="butt" stroke-miterlimit="4" stroke-width="3.2" d="M24 20l-8-8-8 8"></path>
</symbol>
<symbol id="icon-art" viewBox="0 0 32 32">
<path fill="#ed3b44" style="fill: var(--color2, #ed3b44)" d="M6.667 0h18.667c3.682 0 6.667 2.985 6.667 6.667v18.667c0 3.682-2.985 6.667-6.667 6.667h-18.667c-3.682 0-6.667-2.985-6.667-6.667v-18.667c0-3.682 2.985-6.667 6.667-6.667z"></path>
<path fill="none" stroke="#fafafa" style="stroke: var(--color1, #fafafa)" stroke-linejoin="round" stroke-linecap="round" stroke-miterlimit="4" stroke-width="1.3333" d="M16.519 18l-2.519-2.519M9.333 22.667c1.333 0 3.072 0.228 3.983-0.683 0.422-0.422 0.683-1.006 0.683-1.65 0-1.289-1.045-2.333-2.333-2.333-0.644 0-1.228 0.261-1.65 0.683v0c-0.911 0.911 0 2.65-0.683 3.983z"></path>
<path fill="none" stroke="#fafafa" style="stroke: var(--color1, #fafafa)" stroke-linejoin="round" stroke-linecap="round" stroke-miterlimit="4" stroke-width="1.3333" d="M13.333 18.667c-0.327-0.327-0.491-0.491-0.584-0.663-0.101-0.183-0.16-0.401-0.16-0.634 0-0.25 0.069-0.484 0.189-0.684l-0.003 0.006c0.099-0.167 0.269-0.325 0.609-0.64l6.579-6.091c0.262-0.247 0.617-0.4 1.007-0.4 0.811 0 1.469 0.658 1.469 1.469 0 0.39-0.152 0.745-0.4 1.008l0.001-0.001-6.091 6.579c-0.315 0.34-0.473 0.509-0.64 0.609-0.194 0.117-0.428 0.186-0.678 0.186-0.232 0-0.45-0.059-0.641-0.164l0.007 0.003c-0.171-0.093-0.335-0.257-0.663-0.584z"></path>
</symbol>
<symbol id="icon-communication" viewBox="0 0 32 32">
<path fill="#ed3b44" style="fill: var(--color2, #ed3b44)" d="M6.667 0h18.667c3.682 0 6.667 2.985 6.667 6.667v18.667c0 3.682-2.985 6.667-6.667 6.667h-18.667c-3.682 0-6.667-2.985-6.667-6.667v-18.667c0-3.682 2.985-6.667 6.667-6.667z"></path>
<path fill="none" stroke="#fafafa" style="stroke: var(--color1, #fafafa)" stroke-linejoin="round" stroke-linecap="round" stroke-miterlimit="4" stroke-width="1.3333" d="M12.063 15.486c-0.041-0.267-0.063-0.541-0.063-0.819 0-2.945 2.403-5.333 5.369-5.333s5.368 2.388 5.368 5.333c0 0.665-0.123 1.302-0.347 1.889-0.047 0.122-0.070 0.183-0.080 0.231-0.010 0.039-0.015 0.083-0.016 0.129v0c-0.001 0.049 0.005 0.102 0.019 0.209l0.269 2.18c0.029 0.237 0.043 0.355 0.004 0.44-0.035 0.076-0.095 0.134-0.169 0.167l-0.002 0.001c-0.087 0.037-0.204 0.020-0.44-0.015l-2.123-0.311c-0.111-0.016-0.167-0.025-0.217-0.024-0.001 0-0.003-0-0.005-0-0.046 0-0.090 0.005-0.133 0.015l0.004-0.001c-0.049 0.011-0.113 0.034-0.239 0.081-0.564 0.216-1.217 0.341-1.898 0.341-0.288 0-0.57-0.022-0.846-0.065l0.031 0.004M13.088 22.667c1.976 0 3.579-1.641 3.579-3.667s-1.603-3.667-3.579-3.667c-1.977 0-3.579 1.641-3.579 3.667 0 0.407 0.065 0.799 0.185 1.165 0.050 0.155 0.075 0.232 0.084 0.285 0.009 0.055 0.010 0.087 0.007 0.142-0.003 0.053-0.017 0.113-0.043 0.234l-0.407 1.841 1.997-0.273c0.109-0.015 0.163-0.023 0.211-0.022 0.051 0 0.077 0.003 0.127 0.013 0.047 0.009 0.115 0.033 0.254 0.082 0.347 0.126 0.747 0.199 1.164 0.199 0.001 0 0.002 0 0.003 0h-0z"></path>
</symbol>
<symbol id="icon-expertise" viewBox="0 0 32 32">
<path fill="#ed3b44" style="fill: var(--color2, #ed3b44)" d="M6.667 0h18.667c3.682 0 6.667 2.985 6.667 6.667v18.667c0 3.682-2.985 6.667-6.667 6.667h-18.667c-3.682 0-6.667-2.985-6.667-6.667v-18.667c0-3.682 2.985-6.667 6.667-6.667z"></path>
<path fill="none" stroke="#fafafa" style="stroke: var(--color1, #fafafa)" stroke-linejoin="round" stroke-linecap="round" stroke-miterlimit="4" stroke-width="1.3333" d="M21.333 22c0-0.931 0-1.395-0.115-1.774-0.265-0.854-0.924-1.513-1.759-1.773l-0.019-0.005c-0.379-0.115-0.843-0.115-1.774-0.115h-3.333c-0.931 0-1.395 0-1.774 0.115-0.854 0.265-1.513 0.924-1.773 1.759l-0.005 0.019c-0.115 0.379-0.115 0.843-0.115 1.774M16 16c1.657 0 3-1.343 3-3s-1.343-3-3-3v0c-1.657 0-3 1.343-3 3s1.343 3 3 3v0z"></path>
</symbol>
<symbol id="icon-jefferson" viewBox="0 0 141 32">
<path fill="#fafafa" style="fill: var(--color1, #fafafa)" d="M133.416 15.158l0.234-4.935-4.313 2.683-1.337-2.218 4.581-2.25-4.581-2.252 1.337-2.25 4.312 2.685-0.231-4.936h2.641l-0.234 4.935 4.313-2.683 1.336 2.25-4.581 2.252 4.581 2.25-1.337 2.218-4.312-2.685 0.231 4.936h-2.641zM112.987 14.412v10.851h-3.513v-18.297h3.416v3.011h0.244c0.403-0.982 1.071-1.787 1.916-2.346l0.019-0.012c0.877-0.589 2.004-0.883 3.382-0.883 1.236 0 2.316 0.261 3.237 0.785 0.933 0.514 1.654 1.283 2.164 2.307 0.519 1.027 0.78 2.297 0.78 3.815v11.619h-3.513v-11.195c0-1.32-0.347-2.356-1.041-3.109-0.694-0.763-1.637-1.145-2.829-1.145-0.813 0-1.546 0.185-2.196 0.556-0.645 0.369-1.16 0.898-1.502 1.534l-0.010 0.021c-0.369 0.677-0.552 1.506-0.552 2.488zM99.36 25.263c-1.689 0-3.17-0.386-4.44-1.155-1.26-0.77-2.24-1.849-2.939-3.24-0.691-1.389-1.034-3.005-1.034-4.844 0-1.859 0.345-3.486 1.034-4.876 0.699-1.401 1.679-2.486 2.939-3.256 1.27-0.77 2.75-1.155 4.44-1.155 1.701 0 3.181 0.386 4.441 1.155s2.24 1.854 2.939 3.256c0.699 1.389 1.049 3.015 1.049 4.876 0 1.839-0.35 3.454-1.049 4.845-0.701 1.389-1.679 2.469-2.939 3.239s-2.74 1.155-4.441 1.155zM99.36 22.328c1.11 0 2.024-0.288 2.745-0.866s1.255-1.342 1.6-2.294c0.354-0.963 0.532-2.011 0.532-3.144 0-1.154-0.179-2.213-0.534-3.175-0.344-0.963-0.876-1.733-1.598-2.311-0.721-0.578-1.635-0.866-2.745-0.866-1.098 0-2.008 0.288-2.728 0.866-0.711 0.578-1.243 1.347-1.6 2.311-0.354 0.962-0.532 2.021-0.532 3.175 0 1.133 0.179 2.183 0.534 3.144 0.354 0.952 0.888 1.716 1.598 2.294 0.721 0.578 1.63 0.866 2.728 0.866zM88.896 11.357l-3.289 0.546c-0.211-0.6-0.606-1.15-1.184-1.652-0.568-0.504-1.42-0.755-2.555-0.755-1.024 0-1.881 0.224-2.57 0.674-0.68 0.438-1.019 1-1.019 1.684 0 0.6 0.227 1.086 0.684 1.46 0.468 0.374 1.208 0.674 2.221 0.898l2.988 0.642c1.701 0.374 2.978 0.962 3.823 1.765 0.845 0.802 1.268 1.827 1.268 3.079 0 1.080-0.323 2.043-0.968 2.887-0.645 0.835-1.541 1.492-2.688 1.974-1.145 0.472-2.471 0.706-3.973 0.706-2.092 0-3.795-0.433-5.108-1.299-1.314-0.867-2.12-2.085-2.42-3.658l3.49-0.514c0.222 0.877 0.674 1.541 1.351 1.989 0.691 0.45 1.581 0.674 2.671 0.674 1.179 0 2.125-0.241 2.838-0.721 0.724-0.482 1.086-1.064 1.086-1.748 0-1.133-0.879-1.898-2.637-2.294l-3.156-0.674c-1.747-0.386-3.038-0.99-3.874-1.812-0.822-0.835-1.235-1.883-1.235-3.144 0-1.059 0.307-1.989 0.918-2.791 0.623-0.802 1.475-1.423 2.555-1.861 1.090-0.45 2.331-0.674 3.722-0.674 2.026 0 3.613 0.421 4.758 1.267 1.116 0.806 1.934 1.964 2.294 3.31l0.010 0.042zM64 25.263v-18.265h3.537v2.925h0.204c0.344-0.975 0.985-1.775 1.811-2.31l0.018-0.011c0.819-0.543 1.826-0.866 2.907-0.866 0.025 0 0.050 0 0.074 0l-0.004-0c0.226 0 0.492 0.010 0.797 0.034 0.315 0.010 0.569 0.027 0.761 0.049v3.397c-0.226-0.057-0.497-0.103-0.774-0.128l-0.021-0.002c-0.34-0.043-0.735-0.067-1.135-0.067h-0.001c-0.869 0-1.647 0.18-2.336 0.539-0.677 0.35-1.213 0.835-1.607 1.455-0.362 0.581-0.577 1.287-0.577 2.042 0 0.029 0 0.057 0.001 0.086l-0-0.004v11.126h-3.656zM54.344 25.263c-1.819 0-3.395-0.379-4.728-1.139-1.321-0.757-2.373-1.85-3.058-3.166l-0.020-0.043c-0.709-1.389-1.064-3.010-1.064-4.861 0-1.839 0.349-3.459 1.048-4.859 0.682-1.366 1.7-2.477 2.947-3.253l0.034-0.020c1.287-0.792 2.796-1.187 4.525-1.187 1.054 0 2.075 0.165 3.062 0.497 1.033 0.353 1.921 0.89 2.668 1.578l-0.005-0.005c0.788 0.716 1.41 1.645 1.864 2.791 0.467 1.145 0.699 2.523 0.699 4.138v1.251h-14.796v-2.616h12.931l-1.681 0.867c0-1.101-0.177-2.075-0.532-2.92-0.334-0.818-0.885-1.49-1.583-1.963l-0.015-0.010c-0.699-0.482-1.57-0.723-2.611-0.723-1.044 0-1.937 0.241-2.681 0.723-0.721 0.474-1.294 1.12-1.668 1.88l-0.012 0.028c-0.387 0.792-0.583 1.657-0.583 2.599v1.78c0 1.229 0.222 2.274 0.667 3.128 0.443 0.856 1.059 1.509 1.846 1.957 0.8 0.45 1.726 0.674 2.779 0.674 0.689 0 1.31-0.096 1.864-0.288 0.566-0.194 1.054-0.482 1.465-0.866 0.411-0.386 0.721-0.862 0.931-1.428l3.429 0.625c-0.289 0.992-0.795 1.845-1.467 2.536l0.001-0.001c-0.699 0.728-1.58 1.293-2.644 1.701-1.056 0.396-2.259 0.593-3.613 0.593zM46.213 7.158v2.835h-10.845v-2.835h10.845zM38.324 25.263v-20.211c0-1.123 0.264-2.056 0.792-2.801 0.539-0.758 1.236-1.319 2.095-1.684 0.812-0.359 1.758-0.568 2.753-0.568 0.017 0 0.035 0 0.052 0h-0.003c0.766 0 1.42 0.059 1.959 0.179 0.539 0.118 0.933 0.221 1.186 0.307l-0.893 2.851c-0.152-0.050-0.377-0.112-0.605-0.165l-0.067-0.013c-0.274-0.063-0.589-0.099-0.912-0.099-0.029 0-0.059 0-0.088 0.001l0.004-0c-0.906 0-1.56 0.217-1.96 0.648-0.401 0.421-0.601 1.036-0.601 1.846v19.709h-3.712z"></path>
<path fill="#fafafa" style="fill: var(--color1, #fafafa)" d="M36.108 7.158v2.835h-10.845v-2.835h10.845zM28.219 25.263v-20.211c0-1.123 0.264-2.056 0.792-2.801 0.539-0.758 1.236-1.319 2.095-1.684 0.812-0.359 1.758-0.568 2.753-0.568 0.017 0 0.035 0 0.052 0h-0.003c0.766 0 1.42 0.059 1.959 0.179 0.539 0.118 0.933 0.221 1.186 0.307l-0.893 2.851c-0.152-0.050-0.377-0.112-0.605-0.165l-0.067-0.013c-0.274-0.063-0.589-0.099-0.912-0.099-0.029 0-0.059 0-0.088 0.001l0.004-0c-0.906 0-1.56 0.217-1.96 0.648-0.401 0.421-0.601 1.036-0.601 1.846v19.709h-3.712zM17.292 25.263c-1.819 0-3.395-0.379-4.728-1.139-1.321-0.757-2.373-1.85-3.058-3.166l-0.020-0.043c-0.709-1.389-1.064-3.010-1.064-4.861 0-1.839 0.35-3.459 1.049-4.859 0.681-1.366 1.697-2.477 2.942-3.253l0.034-0.020c1.288-0.792 2.797-1.187 4.531-1.187 1.054 0 2.075 0.165 3.062 0.497 1.033 0.353 1.921 0.89 2.668 1.578l-0.005-0.005c0.788 0.716 1.41 1.645 1.864 2.791 0.467 1.145 0.699 2.523 0.699 4.138v1.251h-14.797v-2.616h12.931l-1.681 0.867c0-1.101-0.177-2.075-0.532-2.92-0.334-0.818-0.885-1.49-1.583-1.963l-0.015-0.010c-0.699-0.482-1.57-0.723-2.611-0.723-1.044 0-1.937 0.241-2.681 0.723-0.721 0.474-1.294 1.12-1.668 1.88l-0.012 0.028c-0.387 0.792-0.583 1.657-0.583 2.599v1.78c0 1.229 0.222 2.274 0.667 3.128 0.443 0.856 1.059 1.509 1.846 1.957 0.8 0.45 1.726 0.674 2.779 0.674 0.689 0 1.31-0.096 1.864-0.288 0.566-0.194 1.054-0.482 1.465-0.866 0.411-0.386 0.721-0.862 0.931-1.428l3.429 0.625c-0.289 0.992-0.795 1.845-1.467 2.536l0.001-0.001c-0.699 0.728-1.58 1.293-2.644 1.701-1.056 0.396-2.26 0.593-3.613 0.593zM2.878 7.011h3.416v19.377c0.010 1.213-0.2 2.24-0.633 3.074-0.421 0.819-1.074 1.469-1.872 1.875l-0.024 0.011c-0.834 0.436-1.856 0.652-3.069 0.652h-0.696v-3.042h0.554c0.822 0 1.411-0.222 1.77-0.667s0.544-1.085 0.554-1.92v-19.36zM4.571 4.214c-0.601 0-1.112-0.207-1.534-0.618-0.39-0.365-0.633-0.884-0.633-1.459 0-0.008 0-0.016 0-0.024v0.001c0-0.584 0.211-1.083 0.633-1.496 0.421-0.413 0.933-0.618 1.533-0.618 0.591 0 1.098 0.205 1.519 0.618 0.433 0.413 0.648 0.911 0.648 1.497 0 0.574-0.216 1.068-0.648 1.48-0.421 0.411-0.926 0.618-1.517 0.618z"></path>
</symbol>
<symbol id="icon-urgent-execution" viewBox="0 0 32 32">
<path fill="#ed3b44" style="fill: var(--color2, #ed3b44)" d="M6.667 0h18.667c3.682 0 6.667 2.985 6.667 6.667v18.667c0 3.682-2.985 6.667-6.667 6.667h-18.667c-3.682 0-6.667-2.985-6.667-6.667v-18.667c0-3.682 2.985-6.667 6.667-6.667z"></path>
<path fill="none" stroke="#fafafa" style="stroke: var(--color1, #fafafa)" stroke-linejoin="round" stroke-linecap="round" stroke-miterlimit="4" stroke-width="1.3333" d="M20.109 9.333h-8.217c-0.308 0-0.558 0.25-0.558 0.558v0c0 0 0 0 0 0 0 1.85 0.75 3.525 1.962 4.737l0.813 0.813c0.080 0.080 0.121 0.121 0.149 0.16 0.082 0.11 0.132 0.248 0.132 0.398s-0.050 0.289-0.133 0.4l0.001-0.002c-0.029 0.039-0.069 0.079-0.149 0.16l-0.813 0.813c-1.212 1.212-1.962 2.887-1.962 4.737 0 0 0 0 0 0v0c0 0.308 0.25 0.558 0.558 0.558h8.217c0.308 0 0.558-0.25 0.558-0.558v0c0-0 0-0 0-0 0-1.85-0.75-3.525-1.962-4.737l-0.813-0.813c-0.080-0.080-0.121-0.121-0.149-0.16-0.082-0.11-0.132-0.248-0.132-0.398s0.050-0.289 0.133-0.4l-0.001 0.002c0.029-0.039 0.069-0.079 0.149-0.16l0.813-0.813c1.212-1.212 1.962-2.887 1.962-4.737 0-0 0-0 0-0v0c0-0.308-0.25-0.558-0.558-0.558v0z"></path>
</symbol>
</defs>
</svg>
