<svg width="84" height="19" fill="none" xmlns="http://www.w3.org/2000/svg"><path d="m79.216 9 .139-2.93-2.561 1.593L76 6.346l2.72-1.336L76 3.673l.794-1.336 2.56 1.594L79.217 1h1.568l-.139 2.93 2.561-1.593L84 3.673 81.28 5.01 84 6.346l-.794 1.317-2.56-1.594L80.783 9h-1.568ZM67.086 8.557V15H65V4.136h2.028v1.788h.145a3.022 3.022 0 0 1 1.149-1.4c.521-.35 1.19-.524 2.008-.524.734 0 1.375.155 1.922.466.554.305.982.762 1.285 1.37.308.61.463 1.364.463 2.265V15h-2.086V8.353c0-.784-.206-1.399-.618-1.846-.412-.453-.972-.68-1.68-.68-.483 0-.918.11-1.304.33a2.29 2.29 0 0 0-.898.923c-.219.402-.328.894-.328 1.477ZM58.995 15c-1.003 0-1.882-.229-2.636-.686-.748-.457-1.33-1.098-1.745-1.924-.41-.825-.614-1.784-.614-2.876 0-1.104.205-2.07.614-2.895.415-.832.997-1.476 1.745-1.933.754-.457 1.633-.686 2.636-.686 1.01 0 1.889.229 2.637.686.748.457 1.33 1.101 1.745 1.933.415.825.623 1.79.623 2.895 0 1.092-.208 2.051-.623 2.877-.416.825-.997 1.466-1.745 1.923-.748.457-1.627.686-2.637.686Zm0-1.743c.659 0 1.202-.171 1.63-.514.428-.343.745-.797.95-1.362.21-.572.316-1.194.316-1.867 0-.685-.106-1.314-.317-1.885-.204-.572-.52-1.029-.949-1.372-.428-.343-.971-.514-1.63-.514-.652 0-1.192.171-1.62.514-.422.343-.738.8-.95 1.372-.21.571-.316 1.2-.316 1.885 0 .673.106 1.296.317 1.867.21.565.527 1.019.949 1.362.428.343.968.514 1.62.514ZM52.782 6.743l-1.953.324c-.125-.356-.36-.683-.703-.981-.337-.299-.843-.448-1.517-.448-.608 0-1.117.133-1.526.4-.404.26-.605.594-.605 1 0 .356.135.645.406.867.278.222.717.4 1.319.533l1.774.381c1.01.222 1.768.571 2.27 1.048.502.476.753 1.085.753 1.828 0 .641-.192 1.213-.575 1.714-.383.496-.915.886-1.596 1.172-.68.28-1.467.419-2.359.419-1.242 0-2.253-.257-3.033-.771-.78-.515-1.259-1.238-1.437-2.172l2.072-.305c.132.521.4.915.802 1.181.41.267.939.4 1.586.4.7 0 1.262-.143 1.685-.428.43-.286.645-.632.645-1.038 0-.673-.522-1.127-1.566-1.362l-1.874-.4c-1.037-.229-1.804-.588-2.3-1.076-.488-.496-.733-1.118-.733-1.867 0-.629.182-1.181.545-1.657.37-.476.876-.845 1.517-1.105.647-.267 1.384-.4 2.21-.4 1.203 0 2.145.25 2.825.752a3.55 3.55 0 0 1 1.368 1.99ZM38 15V4.155h2.1v1.737h.121a2.675 2.675 0 0 1 1.086-1.378A3.154 3.154 0 0 1 43.075 4c.134 0 .292.006.473.02.187.006.338.016.452.029v2.017a3.194 3.194 0 0 0-.472-.077 5.789 5.789 0 0 0-.674-.04c-.516 0-.978.107-1.387.32-.402.208-.72.496-.954.864a2.318 2.318 0 0 0-.342 1.261V15H38ZM32.267 15c-1.08 0-2.016-.225-2.807-.676a4.596 4.596 0 0 1-1.828-1.905c-.421-.825-.632-1.787-.632-2.886 0-1.092.207-2.054.622-2.885a4.728 4.728 0 0 1 1.77-1.943c.764-.47 1.66-.705 2.687-.705.626 0 1.232.098 1.818.295a4.419 4.419 0 0 1 1.581.934c.468.425.837.977 1.107 1.657.277.68.415 1.498.415 2.457v.743h-8.785V8.533h7.678l-.998.515c0-.654-.105-1.232-.316-1.734a2.55 2.55 0 0 0-.949-1.171c-.415-.286-.932-.429-1.55-.429-.62 0-1.15.143-1.592.429a2.817 2.817 0 0 0-.998 1.133c-.23.47-.346.984-.346 1.543v1.057c0 .73.132 1.35.396 1.857.263.508.629.896 1.096 1.162.475.267 1.025.4 1.65.4.409 0 .778-.057 1.107-.171.336-.115.626-.286.87-.514.244-.229.428-.512.553-.848l2.036.371a3.567 3.567 0 0 1-.87 1.505c-.415.432-.938.768-1.57 1.01-.627.235-1.341.352-2.145.352ZM27.439 4.25v1.683H21V4.25h6.439ZM22.755 15V3c0-.667.157-1.221.47-1.663.32-.45.734-.783 1.244-1A4.132 4.132 0 0 1 26.133 0c.455 0 .843.035 1.163.106.32.07.554.131.704.182l-.53 1.693a5.865 5.865 0 0 0-.399-.106 2.535 2.535 0 0 0-.591-.058c-.538 0-.926.129-1.164.385-.238.25-.357.615-.357 1.096V15h-2.204Z" fill="#FAFAFA"/><path d="M21.439 4.25v1.683H15V4.25h6.439ZM16.755 15V3c0-.667.157-1.221.47-1.663.32-.45.734-.783 1.244-1A4.132 4.132 0 0 1 20.133 0c.455 0 .843.035 1.163.106.32.07.554.131.704.182l-.53 1.693a5.865 5.865 0 0 0-.399-.106 2.535 2.535 0 0 0-.591-.058c-.538 0-.926.129-1.164.385-.238.25-.357.615-.357 1.096V15h-2.204ZM10.267 15c-1.08 0-2.016-.225-2.807-.676a4.596 4.596 0 0 1-1.828-1.905C5.211 11.594 5 10.632 5 9.533c0-1.092.208-2.054.623-2.885A4.728 4.728 0 0 1 7.39 4.705C8.155 4.235 9.051 4 10.08 4c.626 0 1.232.098 1.818.295a4.419 4.419 0 0 1 1.581.934c.468.425.837.977 1.107 1.657.277.68.415 1.498.415 2.457v.743H6.215V8.533h7.678l-.998.515c0-.654-.105-1.232-.316-1.734a2.55 2.55 0 0 0-.949-1.171c-.415-.286-.932-.429-1.55-.429-.62 0-1.15.143-1.592.429a2.816 2.816 0 0 0-.998 1.133c-.23.47-.346.984-.346 1.543v1.057c0 .73.132 1.35.396 1.857.263.508.629.896 1.096 1.162.475.267 1.025.4 1.65.4.409 0 .778-.057 1.107-.171.336-.115.626-.286.87-.514.244-.229.428-.512.553-.848l2.036.371a3.567 3.567 0 0 1-.87 1.505c-.415.432-.938.768-1.57 1.01-.627.235-1.342.352-2.145.352ZM1.709 4.163h2.028v11.505c.006.72-.119 1.33-.376 1.825a2.53 2.53 0 0 1-1.126 1.12C1.74 18.872 1.133 19 .413 19H0v-1.806h.329c.488 0 .838-.132 1.051-.396.213-.264.323-.644.329-1.14V4.163Zm1.005-1.661c-.357 0-.66-.123-.911-.367a1.186 1.186 0 0 1-.376-.88c0-.347.125-.643.376-.888.25-.245.554-.367.91-.367.351 0 .652.122.902.367.257.245.385.541.385.889 0 .341-.128.634-.385.879-.25.244-.55.367-.901.367Z" fill="#FAFAFA"/></svg>